<svg xmlns="http://www.w3.org/2000/svg" viewBox="0 -10 120.71 97.71">
    <style>
		.secondary { fill: #000; }
        @media (prefers-color-scheme: dark) {
            .secondary { fill: #FFF; }
        }
		
	</style>
    
    <path fill="#0134FF" d="M114.67,0H6.04L0,9.77l6.04,9.77h.01s6.03,9.78,6.03,9.78l12.07,19.53h0s12.07,19.54,12.07,19.54h0s6.04,9.78,6.04,9.78l6.04,9.77h.01s6.03,9.78,6.03,9.78h0c5.27,0,6.8,0,12.07,0h0s6.03-9.77,6.03-9.77h.01s6.04-9.78,6.04-9.78l6.04-9.77h0s12.07-19.54,12.07-19.54h0s12.07-19.54,12.07-19.54l6.03-9.77h.01s6.04-9.78,6.04-9.78l-6.04-9.77ZM60.34,87.95h.01s.01,0,.01,0h-.02ZM102.59,19.54l-6.03,9.77-12.07,19.53h0s-12.07,19.54-12.07,19.54h0s-6.04,9.78-6.04,9.78h-12.07l-6.04-9.77h0s-12.07-19.54-12.07-19.54h0s-12.07-19.54-12.07-19.54l-6.03-9.77h-.02.01s6.04-9.78,6.04-9.78h72.42l6.04,9.77h.01s-.02.01-.02.01Z"/>
    
    <path class="secondary" d="M30.19,19.54l6.03,9.77,12.07,19.53h0s12.07,19.54,12.07,19.54l12.07-19.53h0s12.07-19.54,12.07-19.54l6.03-9.77H30.19ZM60.35,48.85l-12.07-19.53h24.14l-12.07,19.53Z"/>
</svg>