<svg xmlns="http://www.w3.org/2000/svg">
  <defs>
	<!-- python icon -->
    <symbol id="python" viewBox="0 0 48 48">
		<path fill="#0277BD" d="M24.047,5c-1.555,0.005-2.633,0.142-3.936,0.367c-3.848,0.67-4.549,2.077-4.549,4.67V14h9v2H15.22h-4.35c-2.636,0-4.943,1.242-5.674,4.219c-0.826,3.417-0.863,5.557,0,9.125C5.851,32.005,7.294,34,9.931,34h3.632v-5.104c0-2.966,2.686-5.896,5.764-5.896h7.236c2.523,0,5-1.862,5-4.377v-8.586c0-2.439-1.759-4.263-4.218-4.672C27.406,5.359,25.589,4.994,24.047,5z M19.063,9c0.821,0,1.5,0.677,1.5,1.502c0,0.833-0.679,1.498-1.5,1.498c-0.837,0-1.5-0.664-1.5-1.498C17.563,9.68,18.226,9,19.063,9z"></path>
		<path fill="#FFC107" d="M23.078,43c1.555-0.005,2.633-0.142,3.936-0.367c3.848-0.67,4.549-2.077,4.549-4.67V34h-9v-2h9.343h4.35c2.636,0,4.943-1.242,5.674-4.219c0.826-3.417,0.863-5.557,0-9.125C41.274,15.995,39.831,14,37.194,14h-3.632v5.104c0,2.966-2.686,5.896-5.764,5.896h-7.236c-2.523,0-5,1.862-5,4.377v8.586c0,2.439,1.759,4.263,4.218,4.672C19.719,42.641,21.536,43.006,23.078,43z M28.063,39c-0.821,0-1.5-0.677-1.5-1.502c0-0.833,0.679-1.498,1.5-1.498c0.837,0,1.5,0.664,1.5,1.498C29.563,38.32,28.899,39,28.063,39z"></path>
	</symbol>
	
	<!-- java icon -->
	<symbol id="java" viewBox="0 3 50 50">
		<path fill="current color" d="M 28.1875 0 C 30.9375 6.363281 18.328125 10.292969 17.15625 15.59375 C 16.082031 20.464844 24.648438 26.125 24.65625 26.125 C 23.355469 24.109375 22.398438 22.449219 21.09375 19.3125 C 18.886719 14.007813 34.535156 9.207031 28.1875 0 Z M 36.5625 8.8125 C 36.5625 8.8125 25.5 9.523438 24.9375 16.59375 C 24.6875 19.742188 27.847656 21.398438 27.9375 23.6875 C 28.011719 25.558594 26.0625 27.125 26.0625 27.125 C 26.0625 27.125 29.609375 26.449219 30.71875 23.59375 C 31.949219 20.425781 28.320313 18.285156 28.6875 15.75 C 29.039063 13.324219 36.5625 8.8125 36.5625 8.8125 Z M 19.1875 25.15625 C 19.1875 25.15625 9.0625 25.011719 9.0625 27.875 C 9.0625 30.867188 22.316406 31.089844 31.78125 29.25 C 31.78125 29.25 34.296875 27.519531 34.96875 26.875 C 28.765625 28.140625 14.625 28.28125 14.625 27.1875 C 14.625 26.179688 19.1875 25.15625 19.1875 25.15625 Z M 38.65625 25.15625 C 37.664063 25.234375 36.59375 25.617188 35.625 26.3125 C 37.90625 25.820313 39.84375 27.234375 39.84375 28.84375 C 39.84375 32.46875 34.59375 35.875 34.59375 35.875 C 34.59375 35.875 42.71875 34.953125 42.71875 29 C 42.71875 26.296875 40.839844 24.984375 38.65625 25.15625 Z M 16.75 30.71875 C 15.195313 30.71875 12.875 31.9375 12.875 33.09375 C 12.875 35.417969 24.5625 37.207031 33.21875 33.8125 L 30.21875 31.96875 C 24.351563 33.847656 13.546875 33.234375 16.75 30.71875 Z M 18.1875 35.9375 C 16.058594 35.9375 14.65625 37.222656 14.65625 38.1875 C 14.65625 41.171875 27.371094 41.472656 32.40625 38.4375 L 29.21875 36.40625 C 25.457031 37.996094 16.015625 38.238281 18.1875 35.9375 Z M 11.09375 38.625 C 7.625 38.554688 5.375 40.113281 5.375 41.40625 C 5.375 48.28125 40.875 47.964844 40.875 40.9375 C 40.875 39.769531 39.527344 39.203125 39.03125 38.9375 C 41.933594 45.65625 9.96875 45.121094 9.96875 41.15625 C 9.96875 40.253906 12.320313 39.390625 14.5 39.8125 L 12.65625 38.75 C 12.113281 38.667969 11.589844 38.636719 11.09375 38.625 Z M 44.625 43.25 C 39.226563 48.367188 25.546875 50.222656 11.78125 47.0625 C 25.542969 52.695313 44.558594 49.535156 44.625 43.25 Z"></path>
	</symbol>
	
	<!-- kotlin icon -->
	<symbol id="kotlin" viewBox="0 -1.5 50 50">
		<polygon fill="#0d91d6" points="24,6 17.99,12.35 11.97,18.69 6,25 6,6"></polygon><polygon fill="#f88909" points="24,6 23.96,6 17.97,12.33 11.96,18.68 6,24.97 6,25 6,25.09 6,42 14.69,33.31 20.87,27.13 27.06,20.94 33.25,14.75 42,6"></polygon><polygon fill="#c757bc" points="14.69,33.31 6,42 6,25.09"></polygon><polygon fill="#d3638f" points="20.87,27.13 14.69,33.31 6,25.09 6,25 11.97,18.69"></polygon><polygon fill="#e07063" points="27.06,20.94 20.87,27.13 11.97,18.69 17.99,12.35"></polygon><polygon fill="#ec7d36" points="33.25,14.75 27.06,20.94 17.99,12.35 24,6"></polygon><polygon fill="#f88909" points="42,6 33.25,14.75 24,6"></polygon><polygon fill="#0095d5" points="11.51,19.15 7.99,22.88 6,21 6,13.94"></polygon><polygon fill="#2b88da" points="15.03,15.42 11.51,19.15 6,13.94 6,6.87"></polygon><polygon fill="#557bde" points="18.56,11.7 15.03,15.42 6,6.87 6,6 12.53,6"></polygon><polygon fill="#806ee3" points="22.08,7.97 18.56,11.7 12.53,6 24,6"></polygon><polygon fill="#0095d5" points="23,25 6,42 9.35,42 17.52,42 40,42"></polygon><polygon fill="#2b88da" points="25.68,42 17.52,42 11.76,36.25 15.84,32.17"></polygon><polygon fill="#557bde" points="33.86,42 25.68,42 15.84,32.17 19.92,28.09"></polygon><polygon fill="#806ee3" points="42,42 33.86,42 19.92,28.09 24,24"></polygon>
	</symbol>
	
	<!-- sql pl -->
	<symbol id="sql_pl" viewBox="0 10 80 80">
		<path fill="#f15b6c" d="M69,82H31c-7.18,0-13-5.82-13-13V31c0-7.18,5.82-13,13-13h38c7.18,0,13,5.82,13,13v38	C82,76.18,76.18,82,69,82z"></path><path fill="#1f212b" d="M66.5,78h-33C27.159,78,22,72.841,22,66.5v-33C22,27.159,27.159,22,33.5,22h33	c0.353,0,0.701,0.021,1.046,0.053c0.275,0.025,0.477,0.269,0.452,0.544c-0.025,0.274-0.258,0.476-0.544,0.452	C67.139,23.02,66.822,23,66.5,23h-33C27.71,23,23,27.71,23,33.5v33C23,72.29,27.71,77,33.5,77h33C72.29,77,77,72.29,77,66.5v-17	c0-0.276,0.224-0.5,0.5-0.5s0.5,0.224,0.5,0.5v17C78,72.841,72.841,78,66.5,78z M77.5,40c-0.276,0-0.5-0.224-0.5-0.5v-2	c0-0.276,0.224-0.5,0.5-0.5s0.5,0.224,0.5,0.5v2C78,39.776,77.776,40,77.5,40z M77.5,47c-0.276,0-0.5-0.224-0.5-0.5v-4	c0-0.276,0.224-0.5,0.5-0.5s0.5,0.224,0.5,0.5v4C78,46.776,77.776,47,77.5,47z"></path><path fill="#1f212b" d="M69,83H31c-7.72,0-14-6.28-14-14V31c0-7.72,6.28-14,14-14h38c7.72,0,14,6.28,14,14v38	C83,76.72,76.72,83,69,83z M31,19c-6.617,0-12,5.383-12,12v38c0,6.617,5.383,12,12,12h38c6.617,0,12-5.383,12-12V31	c0-6.617-5.383-12-12-12H31z"></path><path fill="#fefdef" d="M61.957,48.415C58.749,48.972,54.504,49.28,50,49.28c-4.503,0-8.749-0.308-11.955-0.865	c-3.593-0.625-5.423-1.467-5.901-2.735C32.058,45.908,32,46.144,32,46.4v7.2c0,1.685,1.809,2.719,6.045,3.455	C41.25,57.612,45.497,57.92,50,57.92c4.504,0,8.749-0.308,11.958-0.865C66.192,56.319,68,55.285,68,53.6v-7.2	c0-0.256-0.056-0.492-0.141-0.72C67.38,46.948,65.549,47.79,61.957,48.415"></path><path fill="#fefdef" d="M61.957,59.935C58.749,60.492,54.504,60.8,50,60.8c-4.503,0-8.749-0.308-11.955-0.865	c-3.593-0.625-5.423-1.467-5.901-2.735C32.058,57.428,32,57.664,32,57.92v7.2c0,1.685,1.809,2.719,6.045,3.455	C41.25,69.132,45.497,69.44,50,69.44c4.504,0,8.749-0.308,11.958-0.865C66.192,67.839,68,66.805,68,65.12v-7.2	c0-0.256-0.056-0.492-0.141-0.72C67.38,58.467,65.549,59.31,61.957,59.935"></path><path fill="#fefdef" d="M61.958,31.425C58.75,30.867,54.504,30.56,50,30.56c-4.503,0-8.749,0.307-11.956,0.865	C33.809,32.161,32,33.195,32,34.88v7.2c0,1.685,1.809,2.719,6.044,3.455C41.251,46.093,45.497,46.4,50,46.4	c4.504,0,8.749-0.307,11.958-0.865C66.193,44.798,68,43.765,68,42.08v-7.2C68,33.195,66.193,32.161,61.958,31.425z M50,32	c9.147,0,16.56,1.29,16.56,2.88S59.147,37.76,50,37.76c-9.145,0-16.56-1.29-16.56-2.88S40.855,32,50,32z"></path><path fill="#f15b6c" d="M56.235,41.517c-0.45,0-0.83-0.349-0.861-0.805c-0.032-0.476,0.327-0.889,0.804-0.921	c2.217-0.151,4.207-0.379,5.914-0.676c0.606-0.104,1.434-0.247,2.278-0.465c0.456-0.12,0.933,0.158,1.053,0.621	c0.119,0.462-0.159,0.933-0.621,1.052c-0.913,0.236-1.781,0.385-2.415,0.495c-1.765,0.307-3.814,0.542-6.092,0.697	C56.275,41.516,56.255,41.517,56.235,41.517z"></path><path fill="#f15b6c" d="M56.235,53.037c-0.45,0-0.83-0.349-0.861-0.805c-0.032-0.476,0.327-0.889,0.804-0.921	c2.212-0.151,4.202-0.379,5.914-0.676c0.606-0.104,1.434-0.247,2.278-0.465c0.456-0.121,0.933,0.157,1.053,0.621	c0.119,0.462-0.159,0.933-0.621,1.052c-0.913,0.236-1.781,0.385-2.415,0.495c-1.77,0.308-3.819,0.542-6.092,0.697	C56.275,53.036,56.255,53.037,56.235,53.037z"></path><path fill="#f15b6c" d="M56.235,64.556c-0.45,0-0.83-0.35-0.861-0.806c-0.032-0.476,0.327-0.888,0.804-0.92	c2.211-0.151,4.201-0.378,5.914-0.676c0.606-0.104,1.434-0.247,2.278-0.465c0.456-0.12,0.933,0.158,1.053,0.621	c0.119,0.462-0.159,0.933-0.621,1.052c-0.913,0.236-1.781,0.385-2.415,0.495c-1.771,0.308-3.821,0.542-6.092,0.697	C56.275,64.555,56.255,64.556,56.235,64.556z"></path>
	</symbol>
	
	<!-- spring boot icon -->
	<symbol id="spring_boot" viewBox="0 0 48 48">
		<path fill="#8bc34a" d="M43.982,23.635c0.069-4.261-0.891-9.328-2.891-15.273l-1.568-4.662l-2.13,4.433 c-0.114,0.237-0.244,0.469-0.38,0.698C33.514,5.827,28.974,4,24,4C12.954,4,4,12.954,4,24c0,11.046,8.954,20,20,20s20-8.954,20-20 C44,23.877,43.984,23.758,43.982,23.635z"></path><path fill="#fff" d="M39.385 32.558c-3.123 4.302-8.651 4.533-13.854 4.442H18.75h-1.938c4.428-1.593 7.063-1.972 9.754-3.4 5.068-2.665 10.078-8.496 11.121-14.562-1.93 5.836-7.779 10.85-13.109 12.889-3.652 1.393-10.248 2.745-10.248 2.745l-.267-.145C9.573 32.268 9.437 22.214 17.6 18.968c3.574-1.423 6.993-.641 10.854-1.593 4.122-1.012 8.89-4.208 10.83-8.375C41.456 15.667 44.07 26.106 39.385 32.558L39.385 32.558zM15.668 38.445C15.386 38.795 14.955 39 14.505 39c-.823 0-1.495-.677-1.495-1.5s.677-1.5 1.495-1.5c.341 0 .677.118.941.336C16.086 36.855 16.186 37.805 15.668 38.445L15.668 38.445z"></path>
	</symbol>
  </defs>
</svg>